<svg xmlns="http://www.w3.org/2000/svg" version="1.1" xmlns:xlink="http://www.w3.org/1999/xlink" width="1000" height="1000"><g clip-path="url(#SvgjsClipPath1071)"><rect width="1000" height="1000" fill="#ffffff"></rect><g transform="matrix(4,0,0,4,100,100)"><svg xmlns="http://www.w3.org/2000/svg" version="1.1" xmlns:xlink="http://www.w3.org/1999/xlink" width="200" height="200"><svg width="200" height="200" viewBox="0 0 200 200" fill="none" xmlns="http://www.w3.org/2000/svg">
<path d="M56.4998 82.6667H3.1665V98.6667H56.4998V82.6667Z" fill="black"></path>
<path d="M37.833 56H21.833V152H37.833V56Z" fill="black"></path>
<path d="M193.833 82.6667H140.5V98.6667H193.833V82.6667Z" fill="black"></path>
<path d="M175.166 56H159.166V152H175.166V56Z" fill="black"></path>
<path d="M100.544 48C119.69 48.0002 135.21 63.5212 135.21 82.667C135.21 101.813 119.69 117.333 100.544 117.333C97.3109 117.333 94.1809 116.889 91.2114 116.061L91.2114 98.8359C93.9569 100.424 97.1446 101.333 100.544 101.333C110.853 101.333 119.21 92.9761 119.21 82.667C119.21 72.3578 110.854 64.0002 100.544 64C90.2351 64 81.8774 72.3577 81.8774 82.667C81.8776 89.4579 85.5044 95.4009 90.9263 98.667L69.8774 98.667L69.8774 98.8408C67.3253 94.0119 65.8775 88.5089 65.8774 82.667C65.8774 63.5211 81.3986 48 100.544 48Z" fill="black"></path>
<path d="M69.8784 114.665L69.8784 135.998L123.212 135.998L123.212 151.998L53.8784 151.998L53.8784 114.665L69.8784 98.665" fill="black"></path>
</svg></svg></g></g><defs><clipPath id="SvgjsClipPath1071"><rect width="1000" height="1000" x="0" y="0" rx="200" ry="200"></rect></clipPath></defs></svg>