<svg width="191" height="104" viewBox="0 0 191 104" fill="none" xmlns="http://www.w3.org/2000/svg">
<path d="M53.3333 34.6667H0V50.6667H53.3333V34.6667Z" fill="black"/>
<path d="M34.6665 8H18.6665V104H34.6665V8Z" fill="black"/>
<path d="M190.667 34.6667H137.333V50.6667H190.667V34.6667Z" fill="black"/>
<path d="M172 8H156V104H172V8Z" fill="black"/>
<path d="M97.3779 2.35689e-07C116.524 0.000175732 132.044 15.5212 132.044 34.667C132.044 53.8126 116.524 69.3328 97.3779 69.333C94.1443 69.333 91.0144 68.8887 88.0449 68.0605L88.0449 50.8359C90.7904 52.424 93.9781 53.333 97.3779 53.333C107.687 53.3328 116.044 44.9761 116.044 34.667C116.044 24.3578 107.687 16.0002 97.3779 16C87.0686 16 78.7109 24.3577 78.7109 34.667C78.7111 41.4579 82.3379 47.4009 87.7598 50.667L66.7109 50.667L66.7109 50.8408C64.1588 46.0119 62.711 40.5089 62.7109 34.667C62.7109 15.5211 78.2321 1.05523e-07 97.3779 2.35689e-07Z" fill="black"/>
<path d="M66.7119 66.665L66.7119 87.9984L120.045 87.9984L120.045 103.998L50.7119 103.998L50.7119 66.665L66.7119 50.665" fill="black"/>
</svg>
