<svg width="125" height="57" viewBox="0 0 125 57" fill="none" xmlns="http://www.w3.org/2000/svg">
<path d="M125 43.4889C124.545 47.6267 122.897 50.92 120.055 53.3689C117.241 55.7896 113.717 57 109.483 57C107.152 57 105.021 56.62 103.088 55.86C101.156 55.1 99.5075 54.0444 98.1434 52.6933C96.7793 51.3422 95.7135 49.7237 94.9462 47.8378C94.2073 45.9237 93.8378 43.8407 93.8378 41.5889V24.5733H84.843V16.6778H93.8378V0.928889H102.662V16.6778H119.33V24.5733H102.662V41.5889C102.662 44.1222 103.287 46.0081 104.538 47.2467C105.788 48.4852 107.437 49.1044 109.483 49.1044C111.984 49.1044 113.845 48.3867 115.067 46.9511C116.289 45.5156 117.014 43.7844 117.241 41.7578L125 43.4889Z" fill="black"/>
<path d="M81.0012 16.0022C81.0012 18.5919 80.3049 21.2378 78.9124 23.94C77.5198 26.6422 75.6015 29.2037 73.1574 31.6244L55.7645 48.1756H72.0916V40.6178H80.0634V56.0289H44.2546V47.7956L66.6777 26.5578C68.6102 24.5874 70.0028 22.7437 70.8554 21.0267C71.7364 19.2815 72.1769 17.6067 72.1769 16.0022C72.1769 14.5667 71.8927 13.3281 71.3243 12.2867C70.7843 11.2452 70.0738 10.4007 69.1928 9.75333C68.3402 9.07778 67.3598 8.59926 66.2514 8.31778C65.143 8.00815 64.0347 7.85333 62.9263 7.85333C59.4307 7.85333 56.674 8.86667 54.6562 10.8933C52.6668 12.92 51.6721 15.9178 51.6721 19.8867H43.402C43.402 13.6659 45.0645 8.7963 48.3896 5.27778C51.7431 1.75926 56.5887 0 62.9263 0C65.3135 0 67.6013 0.351852 69.7896 1.05556C71.978 1.73111 73.8963 2.73037 75.5446 4.05333C77.2214 5.3763 78.5429 7.05111 79.5092 9.07778C80.5039 11.1044 81.0012 13.4126 81.0012 16.0022Z" fill="black"/>
<path d="M40.157 43.4889C39.7023 47.6267 38.054 50.92 35.212 53.3689C32.3984 55.7896 28.8744 57 24.6399 57C22.3095 57 20.178 56.62 18.2454 55.86C16.3129 55.1 14.6646 54.0444 13.3004 52.6933C11.9363 51.3422 10.8705 49.7237 10.1032 47.8378C9.36429 45.9237 8.99483 43.8407 8.99483 41.5889V24.5733H0V16.6778H8.99483V0.928889H17.8191V16.6778H34.4873V24.5733H17.8191V41.5889C17.8191 44.1222 18.4444 46.0081 19.6948 47.2467C20.9453 48.4852 22.5936 49.1044 24.6399 49.1044C27.1408 49.1044 29.0023 48.3867 30.2243 46.9511C31.4464 45.5156 32.1711 43.7844 32.3984 41.7578L40.157 43.4889Z" fill="black"/>
</svg>
